CddbId:c50f5863:[150, 1007, 2979, 6065, 9192, 12160, 14828, 17956, 20930, 24490, 27290, 29965, 32494, 35364, 38157, 40024, 42880, 46203, 48571, 50807, 54095, 57306, 60142, 62733, 65248, 67324, 70075, 72917, 76400, 79152, 80998, 82419, 85073, 87915, 90771, 93975, 97138, 100447, 103637, 106187, 109405, 112428, 115654, 118294, 121185, 124668, 127976, 130157, 134002, 137318, 140299, 142835, 145781, 149306, 152504, 155506, 158905, 161747, 164436, 167550, 171207, 174711, 177066, 179782, 182569, 185111, 188267, 191144, 194265, 196612, 199656, 202067, 205494, 208357, 211359, 213707, 216256, 219391, 223494, 226030, 229687, 232919, 236492, 240122, 243542, 247067, 250438, 253733, 256471, 259822, 263305, 267679, 272444, 279591, 283569, 285874, 289086, 291559, 293579]:294750:74:c50f5863 99 150 1007 2979 6065 9192 12160 14828 17956 20930 24490 27290 29965 32494 35364 38157 40024 42880 46203 48571 50807 54095 57306 60142 62733 65248 67324 70075 72917 76400 79152 80998 82419 85073 87915 90771 93975 97138 100447 103637 106187 109405 112428 115654 118294 121185 124668 127976 130157 134002 137318 140299 142835 145781 149306 152504 155506 158905 161747 164436 167550 171207 174711 177066 179782 182569 185111 188267 191144 194265 196612 199656 202067 205494 208357 211359 213707 216256 219391 223494 226030 229687 232919 236492 240122 243542 247067 250438 253733 256471 259822 263305 267679 272444 279591 283569 285874 289086 291559 293579 3930: 99 0 0 0 0 0 0 0 0 0 0 0 0 0 0 0 0 0 0 0 0 0 0 0 0 0 0 0 0 0 0 0 0 0 0 0 0 0 0 0 0 0 0 0 0 0 0 0 0 0 0 0 0 0 0 0 0 0 0 0 0 0 0 0 0 0 0 0 0 0 0 0 0 0 0 0 0 0 0 0 0 0 0 0 0 0 0 0 0 0 0 0 0 0 0 0 0 0 0 0 3930
num_tracks: 99
offsets: [150, 1007, 2979, 6065, 9192, 12160, 14828, 17956, 20930, 24490, 27290, 29965, 32494, 35364, 38157, 40024, 42880, 46203, 48571, 50807, 54095, 57306, 60142, 62733, 65248, 67324, 70075, 72917, 76400, 79152, 80998, 82419, 85073, 87915, 90771, 93975, 97138, 100447, 103637, 106187, 109405, 112428, 115654, 118294, 121185, 124668, 127976, 130157, 134002, 137318, 140299, 142835, 145781, 149306, 152504, 155506, 158905, 161747, 164436, 167550, 171207, 174711, 177066, 179782, 182569, 185111, 188267, 191144, 194265, 196612, 199656, 202067, 205494, 208357, 211359, 213707, 216256, 219391, 223494, 226030, 229687, 232919, 236492, 240122, 243542, 247067, 250438, 253733, 256471, 259822, 263305, 267679, 272444, 279591, 283569, 285874, 289086, 291559, 293579]
extents: [0, 0, 0, 0, 0, 0, 0, 0, 0, 0, 0, 0, 0, 0, 0, 0, 0, 0, 0, 0, 0, 0, 0, 0, 0, 0, 0, 0, 0, 0, 0, 0, 0, 0, 0, 0, 0, 0, 0, 0, 0, 0, 0, 0, 0, 0, 0, 0, 0, 0, 0, 0, 0, 0, 0, 0, 0, 0, 0, 0, 0, 0, 0, 0, 0, 0, 0, 0, 0, 0, 0, 0, 0, 0, 0, 0, 0, 0, 0, 0, 0, 0, 0, 0, 0, 0, 0, 0, 0, 0, 0, 0, 0, 0, 0, 0, 0, 0, 0]
total_length: 3930
cddb: [3306117219, 99, 150, 1007, 2979, 6065, 9192, 12160, 14828, 17956, 20930, 24490, 27290, 29965, 32494, 35364, 38157, 40024, 42880, 46203, 48571, 50807, 54095, 57306, 60142, 62733, 65248, 67324, 70075, 72917, 76400, 79152, 80998, 82419, 85073, 87915, 90771, 93975, 97138, 100447, 103637, 106187, 109405, 112428, 115654, 118294, 121185, 124668, 127976, 130157, 134002, 137318, 140299, 142835, 145781, 149306, 152504, 155506, 158905, 161747, 164436, 167550, 171207, 174711, 177066, 179782, 182569, 185111, 188267, 191144, 194265, 196612, 199656, 202067, 205494, 208357, 211359, 213707, 216256, 219391, 223494, 226030, 229687, 232919, 236492, 240122, 243542, 247067, 250438, 253733, 256471, 259822, 263305, 267679, 272444, 279591, 283569, 285874, 289086, 291559, 293579, 3930]
musicbrainz: ('99 150 1007 2979 6065 9192 12160 14828 17956 20930 24490 27290 29965 32494 35364 38157 40024 42880 46203 48571 50807 54095 57306 60142 62733 65248 67324 70075 72917 76400 79152 80998 82419 85073 87915 90771 93975 97138 100447 103637 106187 109405 112428 115654 118294 121185 124668 127976 130157 134002 137318 140299 142835 145781 149306 152504 155506 158905 161747 164436 167550 171207 174711 177066 179782 182569 185111 188267 191144 194265 196612 199656 202067 205494 208357 211359 213707 216256 219391 223494 226030 229687 232919 236492 240122 243542 247067 250438 253733 256471 259822 263305 267679 272444 279591 283569 285874 289086 291559 293579 294750', 'qEdQcLjOxvvb0TF.IZ77BTY0CIs-')

CD record:
Device type    : Removable CD-ROM
Version        : 0
Response Format: 1
Vendor_info    : 'SAMSUNG '
Identification : 'CD-ROM SC-148A  '
Revision       : 'B403'
Device seems to be: Generic mmc CD-ROM.
Using generic SCSI-3/mmc   CD-ROM driver (mmc_cd).
Driver flags   : MMC-2 SWABAUDIO 
Supported modes: 
first: 1 last 99
track:   1 lba:         0 (        0) 00:02:00 adr: 1 control: 0 mode: -1
track:   2 lba:       857 (     3428) 00:13:32 adr: 1 control: 0 mode: -1
track:   3 lba:      2829 (    11316) 00:39:54 adr: 1 control: 0 mode: -1
track:   4 lba:      5915 (    23660) 01:20:65 adr: 1 control: 0 mode: -1
track:   5 lba:      9042 (    36168) 02:02:42 adr: 1 control: 0 mode: -1
track:   6 lba:     12010 (    48040) 02:42:10 adr: 1 control: 0 mode: -1
track:   7 lba:     14678 (    58712) 03:17:53 adr: 1 control: 0 mode: -1
track:   8 lba:     17806 (    71224) 03:59:31 adr: 1 control: 0 mode: -1
track:   9 lba:     20780 (    83120) 04:39:05 adr: 1 control: 0 mode: -1
track:  10 lba:     24340 (    97360) 05:26:40 adr: 1 control: 0 mode: -1
track:  11 lba:     27140 (   108560) 06:03:65 adr: 1 control: 0 mode: -1
track:  12 lba:     29815 (   119260) 06:39:40 adr: 1 control: 0 mode: -1
track:  13 lba:     32344 (   129376) 07:13:19 adr: 1 control: 0 mode: -1
track:  14 lba:     35214 (   140856) 07:51:39 adr: 1 control: 0 mode: -1
track:  15 lba:     38007 (   152028) 08:28:57 adr: 1 control: 0 mode: -1
track:  16 lba:     39874 (   159496) 08:53:49 adr: 1 control: 0 mode: -1
track:  17 lba:     42730 (   170920) 09:31:55 adr: 1 control: 0 mode: -1
track:  18 lba:     46053 (   184212) 10:16:03 adr: 1 control: 0 mode: -1
track:  19 lba:     48421 (   193684) 10:47:46 adr: 1 control: 0 mode: -1
track:  20 lba:     50657 (   202628) 11:17:32 adr: 1 control: 0 mode: -1
track:  21 lba:     53945 (   215780) 12:01:20 adr: 1 control: 0 mode: -1
track:  22 lba:     57156 (   228624) 12:44:06 adr: 1 control: 0 mode: -1
track:  23 lba:     59992 (   239968) 13:21:67 adr: 1 control: 0 mode: -1
track:  24 lba:     62583 (   250332) 13:56:33 adr: 1 control: 0 mode: -1
track:  25 lba:     65098 (   260392) 14:29:73 adr: 1 control: 0 mode: -1
track:  26 lba:     67174 (   268696) 14:57:49 adr: 1 control: 0 mode: -1
track:  27 lba:     69925 (   279700) 15:34:25 adr: 1 control: 0 mode: -1
track:  28 lba:     72767 (   291068) 16:12:17 adr: 1 control: 0 mode: -1
track:  29 lba:     76250 (   305000) 16:58:50 adr: 1 control: 0 mode: -1
track:  30 lba:     79002 (   316008) 17:35:27 adr: 1 control: 0 mode: -1
track:  31 lba:     80848 (   323392) 17:59:73 adr: 1 control: 0 mode: -1
track:  32 lba:     82269 (   329076) 18:18:69 adr: 1 control: 0 mode: -1
track:  33 lba:     84923 (   339692) 18:54:23 adr: 1 control: 0 mode: -1
track:  34 lba:     87765 (   351060) 19:32:15 adr: 1 control: 0 mode: -1
track:  35 lba:     90621 (   362484) 20:10:21 adr: 1 control: 0 mode: -1
track:  36 lba:     93825 (   375300) 20:53:00 adr: 1 control: 0 mode: -1
track:  37 lba:     96988 (   387952) 21:35:13 adr: 1 control: 0 mode: -1
track:  38 lba:    100297 (   401188) 22:19:22 adr: 1 control: 0 mode: -1
track:  39 lba:    103487 (   413948) 23:01:62 adr: 1 control: 0 mode: -1
track:  40 lba:    106037 (   424148) 23:35:62 adr: 1 control: 0 mode: -1
track:  41 lba:    109255 (   437020) 24:18:55 adr: 1 control: 0 mode: -1
track:  42 lba:    112278 (   449112) 24:59:03 adr: 1 control: 0 mode: -1
track:  43 lba:    115504 (   462016) 25:42:04 adr: 1 control: 0 mode: -1
track:  44 lba:    118144 (   472576) 26:17:19 adr: 1 control: 0 mode: -1
track:  45 lba:    121035 (   484140) 26:55:60 adr: 1 control: 0 mode: -1
track:  46 lba:    124518 (   498072) 27:42:18 adr: 1 control: 0 mode: -1
track:  47 lba:    127826 (   511304) 28:26:26 adr: 1 control: 0 mode: -1
track:  48 lba:    130007 (   520028) 28:55:32 adr: 1 control: 0 mode: -1
track:  49 lba:    133852 (   535408) 29:46:52 adr: 1 control: 0 mode: -1
track:  50 lba:    137168 (   548672) 30:30:68 adr: 1 control: 0 mode: -1
track:  51 lba:    140149 (   560596) 31:10:49 adr: 1 control: 0 mode: -1
track:  52 lba:    142685 (   570740) 31:44:35 adr: 1 control: 0 mode: -1
track:  53 lba:    145631 (   582524) 32:23:56 adr: 1 control: 0 mode: -1
track:  54 lba:    149156 (   596624) 33:10:56 adr: 1 control: 0 mode: -1
track:  55 lba:    152354 (   609416) 33:53:29 adr: 1 control: 0 mode: -1
track:  56 lba:    155356 (   621424) 34:33:31 adr: 1 control: 0 mode: -1
track:  57 lba:    158755 (   635020) 35:18:55 adr: 1 control: 0 mode: -1
track:  58 lba:    161597 (   646388) 35:56:47 adr: 1 control: 0 mode: -1
track:  59 lba:    164286 (   657144) 36:32:36 adr: 1 control: 0 mode: -1
track:  60 lba:    167400 (   669600) 37:14:00 adr: 1 control: 0 mode: -1
track:  61 lba:    171057 (   684228) 38:02:57 adr: 1 control: 0 mode: -1
track:  62 lba:    174561 (   698244) 38:49:36 adr: 1 control: 0 mode: -1
track:  63 lba:    176916 (   707664) 39:20:66 adr: 1 control: 0 mode: -1
track:  64 lba:    179632 (   718528) 39:57:07 adr: 1 control: 0 mode: -1
track:  65 lba:    182419 (   729676) 40:34:19 adr: 1 control: 0 mode: -1
track:  66 lba:    184961 (   739844) 41:08:11 adr: 1 control: 0 mode: -1
track:  67 lba:    188117 (   752468) 41:50:17 adr: 1 control: 0 mode: -1
track:  68 lba:    190994 (   763976) 42:28:44 adr: 1 control: 0 mode: -1
track:  69 lba:    194115 (   776460) 43:10:15 adr: 1 control: 0 mode: -1
track:  70 lba:    196462 (   785848) 43:41:37 adr: 1 control: 0 mode: -1
track:  71 lba:    199506 (   798024) 44:22:06 adr: 1 control: 0 mode: -1
track:  72 lba:    201917 (   807668) 44:54:17 adr: 1 control: 0 mode: -1
track:  73 lba:    205344 (   821376) 45:39:69 adr: 1 control: 0 mode: -1
track:  74 lba:    208207 (   832828) 46:18:07 adr: 1 control: 0 mode: -1
track:  75 lba:    211209 (   844836) 46:58:09 adr: 1 control: 0 mode: -1
track:  76 lba:    213557 (   854228) 47:29:32 adr: 1 control: 0 mode: -1
track:  77 lba:    216106 (   864424) 48:03:31 adr: 1 control: 0 mode: -1
track:  78 lba:    219241 (   876964) 48:45:16 adr: 1 control: 0 mode: -1
track:  79 lba:    223344 (   893376) 49:39:69 adr: 1 control: 0 mode: -1
track:  80 lba:    225880 (   903520) 50:13:55 adr: 1 control: 0 mode: -1
track:  81 lba:    229537 (   918148) 51:02:37 adr: 1 control: 0 mode: -1
track:  82 lba:    232769 (   931076) 51:45:44 adr: 1 control: 0 mode: -1
track:  83 lba:    236342 (   945368) 52:33:17 adr: 1 control: 0 mode: -1
track:  84 lba:    239972 (   959888) 53:21:47 adr: 1 control: 0 mode: -1
track:  85 lba:    243392 (   973568) 54:07:17 adr: 1 control: 0 mode: -1
track:  86 lba:    246917 (   987668) 54:54:17 adr: 1 control: 0 mode: -1
track:  87 lba:    250288 (  1001152) 55:39:13 adr: 1 control: 0 mode: -1
track:  88 lba:    253583 (  1014332) 56:23:08 adr: 1 control: 0 mode: -1
track:  89 lba:    256321 (  1025284) 56:59:46 adr: 1 control: 0 mode: -1
track:  90 lba:    259672 (  1038688) 57:44:22 adr: 1 control: 0 mode: -1
track:  91 lba:    263155 (  1052620) 58:30:55 adr: 1 control: 0 mode: -1
track:  92 lba:    267529 (  1070116) 59:29:04 adr: 1 control: 0 mode: -1
track:  93 lba:    272294 (  1089176) 60:32:44 adr: 1 control: 0 mode: -1
track:  94 lba:    279441 (  1117764) 62:07:66 adr: 1 control: 0 mode: -1
track:  95 lba:    283419 (  1133676) 63:00:69 adr: 1 control: 0 mode: -1
track:  96 lba:    285724 (  1142896) 63:31:49 adr: 1 control: 0 mode: -1
track:  97 lba:    288936 (  1155744) 64:14:36 adr: 1 control: 0 mode: -1
track:  98 lba:    291409 (  1165636) 64:47:34 adr: 1 control: 0 mode: -1
track:  99 lba:    293429 (  1173716) 65:14:29 adr: 1 control: 0 mode: -1
track:lout lba:    294600 (  1178400) 65:30:00 adr: 1 control: 0 mode: -1
